<svg width="254" height="297" viewBox="0 0 254 297" fill="none" xmlns="http://www.w3.org/2000/svg">
<path d="M5.56125 129.69L100.5 184.609L195.439 129.69M100.5 294.12V184.5M207.375 29.125L217.5 39.25L251.25 5.5M247.875 32.5V56.125C247.875 57.9152 247.164 59.6321 245.898 60.898C244.632 62.1638 242.915 62.875 241.125 62.875H193.875C192.085 62.875 190.368 62.1638 189.102 60.898C187.836 59.6321 187.125 57.9152 187.125 56.125V8.875C187.125 7.08479 187.836 5.3679 189.102 4.10203C190.368 2.83616 192.085 2.125 193.875 2.125H231M198.375 228V141C198.371 137.186 197.364 133.44 195.455 130.138C193.547 126.835 190.803 124.093 187.5 122.186L111.375 78.6862C108.069 76.7773 104.318 75.7723 100.5 75.7723C96.6821 75.7723 92.9314 76.7773 89.625 78.6862L13.5 122.186C10.1969 124.093 7.45328 126.835 5.54452 130.138C3.63575 133.44 2.62891 137.186 2.625 141V228C2.62891 231.814 3.63575 235.56 5.54452 238.862C7.45328 242.165 10.1969 244.907 13.5 246.814L89.625 290.314C92.9314 292.223 96.6821 293.228 100.5 293.228C104.318 293.228 108.069 292.223 111.375 290.314L187.5 246.814C190.803 244.907 193.547 242.165 195.455 238.862C197.364 235.56 198.371 231.814 198.375 228Z" stroke="#1E1E1E" stroke-width="4" stroke-linecap="round" stroke-linejoin="round"/>
</svg>
